<?xml version="1.0" encoding="utf-8"?>
<!-- Generator: Adobe Illustrator 25.0.1, SVG Export Plug-In . SVG Version: 6.00 Build 0)  -->
<svg version="1.1" id="Layer_1" xmlns="http://www.w3.org/2000/svg" xmlns:xlink="http://www.w3.org/1999/xlink" x="0px" y="0px"
	 width="23.9976px" height="23.9976px" viewBox="0 0 23.9976 23.9976" style="enable-background:new 0 0 23.9976 23.9976;"
	 xml:space="preserve">
<style type="text/css">
	.st0{fill:#E6E6E6;}
</style>
<path class="st0" d="M4.7995,0C2.1406,0,0,2.1406,0,4.7995v14.3986c0,2.6589,2.1406,4.7995,4.7995,4.7995h14.3986
	c2.6589,0,4.7995-2.1406,4.7995-4.7995V4.7995C23.9976,2.1406,21.857,0,19.1981,0H4.7995z M4.47,5.0625h15.0576
	c0.8739,0,1.6034,0.73,1.6034,1.6039v10.6653c0,0.8739-0.7296,1.6034-1.6034,1.6034H4.47c-0.8739,0-1.6034-0.7296-1.6034-1.6034
	V6.6664C2.8666,5.7925,3.5961,5.0625,4.47,5.0625z"/>
<polygon class="st0" points="5.436,6.7423 11.9997,13.5361 18.593,6.7423 "/>
<polygon class="st0" points="4.5464,7.5485 4.5464,16.2931 8.8435,11.996 "/>
<polygon class="st0" points="19.4512,7.5808 15.1307,12.0325 19.4512,16.3531 "/>
<path class="st0" d="M9.6773,12.8589l-4.3964,4.3964h13.3759l-4.3618-4.3618l-1.8654,1.9226
	c-0.2307,0.2379-0.6105,0.2438-0.8484,0.0131c-0.0047-0.0046-0.0094-0.0093-0.014-0.014L9.6773,12.8589z"/>
</svg>
